<svg width="32" height="32" viewBox="0 0 32 32" fill="none" xmlns="http://www.w3.org/2000/svg">
<path d="M23.9761 24.9666C23.0444 23.7331 21.8391 22.7328 20.455 22.0445C19.0709 21.3561 17.5459 20.9986 16.0001 21C14.4543 20.9986 12.9292 21.3561 11.5451 22.0445C10.1611 22.7328 8.95571 23.7331 8.02406 24.9666M23.9761 24.9666C25.7941 23.3496 27.0762 21.218 27.655 18.8548C28.2337 16.4915 28.0804 14.0081 27.2153 11.7339C26.3503 9.4598 24.8144 7.50234 22.8113 6.12117C20.8081 4.74 18.4325 4.00037 15.9994 4.00037C13.5663 4.00037 11.1906 4.74 9.18753 6.12117C7.18443 7.50234 5.6485 9.4598 4.78344 11.7339C3.91838 14.0081 3.76506 16.4915 4.34382 18.8548C4.92257 21.218 6.20606 23.3496 8.02406 24.9666M23.9761 24.9666C21.7814 26.9242 18.9409 28.0042 16.0001 28C13.0588 28.0045 10.219 26.9245 8.02406 24.9666M20.0001 13C20.0001 14.0608 19.5786 15.0783 18.8285 15.8284C18.0783 16.5785 17.0609 17 16.0001 17C14.9392 17 13.9218 16.5785 13.1716 15.8284C12.4215 15.0783 12.0001 14.0608 12.0001 13C12.0001 11.9391 12.4215 10.9217 13.1716 10.1715C13.9218 9.4214 14.9392 8.99997 16.0001 8.99997C17.0609 8.99997 18.0783 9.4214 18.8285 10.1715C19.5786 10.9217 20.0001 11.9391 20.0001 13Z" stroke="currentColor" stroke-linecap="round" stroke-linejoin="round"/>
</svg>
