<svg width="595" height="76" viewBox="0 0 595 76" fill="none" xmlns="http://www.w3.org/2000/svg">
<path d="M324.496 32.5113V58.7471C324.496 63.4063 323.147 67.0486 320.447 69.674C317.748 72.2995 313.985 73.6122 309.16 73.6122C304.464 73.6122 300.794 72.2995 298.15 69.674C295.524 67.0301 294.212 63.3508 294.212 58.6362V32.5113H297.068V58.7471C297.068 62.6483 298.15 65.6897 300.313 67.8714C302.476 70.0346 305.536 71.1162 309.493 71.1162C313.357 71.1162 316.352 70.0531 318.478 67.9268C320.605 65.7821 321.668 62.8147 321.668 59.0244V32.5113H324.496Z" fill="white"/>
<path d="M335.562 73.0575V32.5113H338.391V73.0575H335.562Z" fill="white"/>
<path d="M364.627 32.5113H375.748C380.758 32.5113 384.438 33.3618 386.786 35.0628C389.134 36.7637 390.308 39.3337 390.308 42.7726C390.308 45.1207 389.587 47.0806 388.145 48.6521C386.721 50.2052 384.632 51.2036 381.877 51.6473V51.8137C385.112 52.2944 387.488 53.3206 389.004 54.8921C390.539 56.4452 391.306 58.6177 391.306 61.4095C391.306 65.1443 390.067 68.0193 387.59 70.0346C385.112 72.0499 381.6 73.0575 377.051 73.0575H364.627V32.5113ZM367.455 50.5657H376.386C380.194 50.5657 382.958 49.9371 384.678 48.6799C386.416 47.4041 387.285 45.4166 387.285 42.7172C387.285 40.0178 386.305 38.058 384.345 36.8377C382.404 35.6174 379.501 35.0073 375.637 35.0073H367.455V50.5657ZM367.455 53.0617V70.5615H376.996C384.502 70.5615 388.256 67.5108 388.256 61.4095C388.256 55.8443 384.299 53.0617 376.386 53.0617H367.455Z" fill="white"/>
<path d="M419.761 58.7471H403.287L397.629 73.0575H394.496L410.803 32.3449H412.605L428.58 73.0575H425.391L419.761 58.7471ZM404.313 56.1956H418.818L413.299 41.5801C412.837 40.4338 412.282 38.8437 411.635 36.81C411.136 38.5849 410.59 40.1934 409.999 41.6356L404.313 56.1956Z" fill="white"/>
<path d="M463.829 73.0575H460.973L436.955 37.0596H436.734C436.955 41.349 437.066 44.5846 437.066 46.7663V73.0575H434.348V32.5113H437.177L461.167 68.4538H461.333C461.167 65.1258 461.083 61.9642 461.083 58.969V32.5113H463.829V73.0575Z" fill="white"/>
<path d="M502.6 73.0575H499.134L483.575 51.6473L478.167 56.4175V73.0575H475.338V32.5113H478.167V53.5887L482.66 49.0959L498.551 32.5113H502.157L485.544 49.6505L502.6 73.0575Z" fill="white"/>
<path d="M508.341 73.0575V32.5113H511.17V73.0575H508.341Z" fill="white"/>
<path d="M552.132 73.0575H549.276L525.259 37.0596H525.037C525.259 41.349 525.37 44.5846 525.37 46.7663V73.0575H522.652V32.5113H525.48L549.47 68.4538H549.636C549.47 65.1258 549.387 61.9642 549.387 58.969V32.5113H552.132V73.0575Z" fill="white"/>
<path d="M579.588 52.618H594.537V71.1162C590.617 72.7802 586.207 73.6122 581.308 73.6122C574.911 73.6122 570.002 71.8095 566.581 68.2042C563.179 64.5803 561.478 59.4589 561.478 52.8399C561.478 48.7168 562.32 45.0653 564.002 41.8852C565.703 38.6866 568.125 36.2183 571.268 34.4804C574.43 32.7424 578.054 31.8734 582.14 31.8734C586.559 31.8734 590.525 32.6869 594.037 34.314L592.9 36.8654C589.387 35.2384 585.745 34.4249 581.973 34.4249C576.63 34.4249 572.387 36.0796 569.244 39.3892C566.119 42.6802 564.557 47.1268 564.557 52.7289C564.557 58.8303 566.045 63.4248 569.022 66.5124C571.999 69.5816 576.371 71.1162 582.14 71.1162C585.875 71.1162 589.045 70.5893 591.652 69.5354V55.2804H579.588V52.618Z" fill="white"/>
<path d="M12.5736 63.1111H62.9836V12.6135H12.5736V63.1111Z" fill="white"/>
<path d="M61.339 61.5508L43.0341 46.1603C43.0341 46.1603 40.5315 43.7489 37.7429 43.7489C34.9542 43.7489 32.4516 46.1603 32.4516 46.1603L14.1467 61.5508L14.0752 61.4798L29.4485 43.1815C29.4485 43.1815 31.8796 40.6992 31.8796 37.8623C31.8796 35.0963 29.4485 32.6139 29.4485 32.6139L14.0752 14.2447L14.1467 14.1738L32.5231 29.5642C32.5231 29.5642 35.0257 31.9756 37.8144 31.9756C40.603 31.9756 43.1056 29.5642 43.1056 29.5642L61.4105 14.1738L61.482 14.2447L46.1088 32.543C46.1088 32.543 43.6777 35.0253 43.6777 37.7914C43.6777 40.6283 46.1088 43.1106 46.1088 43.1106L61.4105 61.4798L61.339 61.5508ZM69.9195 37.8623C69.9195 32.8976 70.134 28.4295 73.7806 20.6279C74.8532 18.3583 77.2128 15.0249 73.7091 11.195C70.9205 8.35809 67.7029 8.85455 65.5577 10.0603C66.7733 7.93254 67.2738 4.67006 64.4137 1.83312C60.5525 -1.64214 57.2633 0.698341 54.9752 1.76219C47.1813 5.45022 42.7481 5.66299 37.7429 5.66299C32.7376 5.66299 28.3044 5.45022 20.5105 1.76219C18.2224 0.698341 14.9333 -1.64214 11.0721 1.83312C8.28343 4.67006 8.71245 7.86162 9.99951 10.0603C7.85441 8.78363 4.63674 8.35809 1.84811 11.195C-1.58406 15.0958 0.77556 18.3583 1.77661 20.6279C5.49479 28.4295 5.7093 32.8976 5.7093 37.8623C5.7093 42.8269 5.49479 47.2951 1.77661 55.1676C0.704056 57.4372 -1.65557 60.7706 1.84811 64.6005C4.63674 67.4374 7.85441 66.9409 9.99951 65.7352C8.78395 67.9339 8.28343 71.1254 11.0721 73.8914C14.9333 77.3667 18.2224 75.0262 20.5105 73.9624C28.3044 70.2743 32.7376 70.0616 37.7429 70.0616C42.7481 70.0616 47.1098 70.2743 54.9752 73.9624C57.2633 75.0262 60.5525 77.3667 64.4137 73.8914C67.2023 71.1254 66.7733 67.8629 65.4862 65.7352C67.6313 66.9409 70.849 67.4374 73.6376 64.6005C77.0698 60.6997 74.7817 57.3663 73.7091 55.1676C70.134 47.2951 69.9195 42.8269 69.9195 37.8623Z" fill="#FF3333"/>
<path d="M129.625 67.1537C135.917 64.8842 143.64 54.1747 142.353 37.2949C141.137 20.9825 134.916 8.14531 118.327 6.9396C118.327 6.9396 115.181 6.72683 112.536 6.72683C109.747 6.72683 109.103 6.58499 108.889 9.6347C108.531 15.3086 108.46 59.2103 108.817 65.5225C108.889 66.3735 108.96 68.5013 112.536 68.8559C119.185 69.4942 124.691 68.9977 129.625 67.1537ZM123.19 4.17359C137.204 4.10266 155.652 13.7483 155.581 37.7914C155.509 58.7138 140.493 71.551 126.55 71.551H91.2275L91.299 70.7708C93.3011 70.4162 95.5178 69.1396 95.8753 67.8629C97.0193 62.8274 96.8048 16.7271 96.0898 9.13824C95.8753 6.79776 94.0162 5.23744 91.7281 4.88282L91.6566 4.17359C91.5851 4.17359 120.043 4.17359 123.19 4.17359ZM200.628 55.0258C200.914 40.5574 190.331 36.7275 179.32 36.0892C179.105 36.0892 179.177 35.5218 179.32 35.5218C182.895 35.38 197.053 33.7487 196.481 20.2023C195.909 7.01053 185.898 6.72683 182.252 6.65591C179.248 6.58499 178.605 6.58499 177.389 6.65591C175.244 6.72683 174.744 6.9396 174.744 9.20916C174.744 9.49285 174.243 33.0395 174.029 49.5647C173.886 58.501 173.886 65.4515 173.886 65.4515C173.957 67.0828 173.743 68.785 177.747 68.9268C181.894 69.1396 187.328 69.2814 191.046 68.5013C194.55 67.792 200.413 65.2388 200.628 55.0258ZM196.338 35.5927C212.784 39.7063 213.785 51.6214 213.57 54.9549C212.784 69.8488 200.199 71.551 195.122 71.551H156.224L156.296 70.7708C159.084 70.4162 161.229 68.8559 161.229 63.8912L161.444 12.5426C161.515 6.9396 160.014 5.23744 156.939 4.88282L156.868 4.17359H186.256C191.618 4.17359 207.921 3.10973 209.28 18.0746C210.424 30.0607 197.267 35.0253 196.338 35.5927ZM259.69 4.38636H260.333L260.548 16.3724H259.833C258.617 11.4787 253.97 6.86868 244.531 6.37222C233.448 5.80483 228.657 12.4007 228.586 18.7129C228.514 27.0819 235.021 28.7841 244.603 31.1245C249.107 32.2593 265.911 34.4579 264.552 53.3236C263.623 66.5154 252.253 72.8276 236.094 72.3311C236.094 72.3311 229.372 72.1184 220.077 69.4942C218.361 68.9977 217.86 69.5651 217.217 70.8417L216.43 70.9127V58.0046L217.145 58.0755C217.503 59.3521 217.646 61.8344 220.005 63.8912C221.721 65.4515 225.797 69.2105 234.664 69.2814C243.387 69.4233 250.68 65.7352 251.61 55.8769C251.896 53.2527 251.61 47.1533 245.675 44.4582C241.099 42.3305 228.228 40.8411 222.079 35.4509C222.079 35.4509 214.714 30.3444 215.858 20.6988C217.503 7.15238 228.8 3.74804 238.954 3.53527C238.954 3.53527 248.035 3.46435 255.257 5.30836C255.257 5.30836 257.044 5.80483 258.474 5.23744C259.261 4.95374 259.547 4.59913 259.69 4.38636Z" fill="white"/>
</svg>
